{
    "asset" : {
        "generator" : "Khronos glTF Blender I/O v1.8.19",
        "version" : "2.0"
    },
    "scene" : 0,
    "scenes" : [
        {
            "name" : "Scene",
            "nodes" : [
                0,
                1,
                2
            ]
        }
    ],
    "nodes" : [
        {
            "name" : "Coin-op Arcade Game Cabinet Galaga"
        },
        {
            "name" : "Coin-op Arcade Game Cabinet Galaga.003",
            "rotation" : [
                0,
                -1,
                0,
                7.549790126404332e-08
            ],
            "translation" : [
                -0.30123329162597656,
                1.6373913288116455,
                -0.12277698516845703
            ]
        },
        {
            "mesh" : 0,
            "name" : "Low Poly stylized cactus",
            "translation" : [
                -0.16959130764007568,
                0,
                -0.5747199654579163
            ]
        }
    ],
    "materials" : [
        {
            "doubleSided" : true,
            "name" : "cactus.001",
            "pbrMetallicRoughness" : {
                "baseColorFactor" : [
                    0.24978291988372803,
                    0.467202365398407,
                    0.09594303369522095,
                    1
                ],
                "metallicFactor" : 0,
                "roughnessFactor" : 0.5
            }
        }
    ],
    "meshes" : [
        {
            "name" : "Plane.020",
            "primitives" : [
                {
                    "attributes" : {
                        "POSITION" : 0,
                        "NORMAL" : 1
                    },
                    "indices" : 2,
                    "material" : 0
                }
            ]
        }
    ],
    "accessors" : [
        {
            "bufferView" : 0,
            "componentType" : 5126,
            "count" : 704,
            "max" : [
                1.2620012760162354,
                2.987581729888916,
                0.35375624895095825
            ],
            "min" : [
                -1.0175353288650513,
                -0.05517876148223877,
                -0.6122592091560364
            ],
            "type" : "VEC3"
        },
        {
            "bufferView" : 1,
            "componentType" : 5126,
            "count" : 704,
            "type" : "VEC3"
        },
        {
            "bufferView" : 2,
            "componentType" : 5123,
            "count" : 1056,
            "type" : "SCALAR"
        }
    ],
    "bufferViews" : [
        {
            "buffer" : 0,
            "byteLength" : 8448,
            "byteOffset" : 0
        },
        {
            "buffer" : 0,
            "byteLength" : 8448,
            "byteOffset" : 8448
        },
        {
            "buffer" : 0,
            "byteLength" : 2112,
            "byteOffset" : 16896
        }
    ],
    "buffers" : [
        {
            "byteLength" : 19008,
            "uri" : "cactus.bin"
        }
    ]
}
